<svg width="33" height="33" viewBox="0 0 33 33" fill="none" xmlns="http://www.w3.org/2000/svg">
<path fill-rule="evenodd" clip-rule="evenodd" d="M23 3H10C6.13401 3 3 6.13401 3 10V23C3 26.866 6.13401 30 10 30H23C26.866 30 30 26.866 30 23V10C30 6.13401 26.866 3 23 3ZM10 0C4.47715 0 0 4.47715 0 10V23C0 28.5228 4.47715 33 10 33H23C28.5228 33 33 28.5228 33 23V10C33 4.47715 28.5228 0 23 0H10ZM16.4999 21.5144C19.2692 21.5144 21.5142 19.2694 21.5142 16.5001C21.5142 13.7308 19.2692 11.4858 16.4999 11.4858C13.7306 11.4858 11.4856 13.7308 11.4856 16.5001C11.4856 19.2694 13.7306 21.5144 16.4999 21.5144ZM16.4999 24.5144C20.926 24.5144 24.5142 20.9263 24.5142 16.5001C24.5142 12.074 20.926 8.48584 16.4999 8.48584C12.0737 8.48584 8.4856 12.074 8.4856 16.5001C8.4856 20.9263 12.0737 24.5144 16.4999 24.5144ZM25.4571 9.42866C24.4156 9.42866 23.5713 8.58439 23.5713 7.54294C23.5713 6.50149 24.4156 5.65723 25.4571 5.65723C26.4985 5.65723 27.3428 6.50149 27.3428 7.54294C27.3428 8.58439 26.4985 9.42866 25.4571 9.42866Z" fill="#9A9A9A"/>
</svg>
