<svg width="30" height="30" viewBox="0 0 30 30" fill="none" xmlns="http://www.w3.org/2000/svg">
<path fill-rule="evenodd" clip-rule="evenodd" d="M17.5022 19.5835C18.1196 19.687 18.733 19.3648 19.1277 19.0877C19.3952 18.8999 19.5623 18.7329 19.5623 18.7329C21.6836 20.8542 21.6824 20.8554 21.6824 20.8554L21.6811 20.8567L21.6785 20.8593L21.6729 20.8648L21.6605 20.8771L21.6303 20.9064C21.6079 20.928 21.5807 20.9537 21.549 20.9828C21.486 21.0409 21.4037 21.1142 21.3042 21.1968C21.2923 21.2068 21.28 21.217 21.2673 21.2273L24.5727 24.5327C24.6822 24.4524 24.7775 24.3798 24.8576 24.3172C24.969 24.2302 25.0497 24.1634 25.0971 24.1233L25.0995 24.1214L26.737 22.4838L23.3955 19.1423L21.6836 20.8542L19.5623 18.7329L21.5702 16.725C22.5783 15.7169 24.204 15.7081 25.2013 16.7054L29.1739 20.678C30.1712 21.6753 30.1624 23.301 29.1543 24.3091L27.1465 26.317C27.1465 26.317 26.5287 26.8753 25.4705 27.5518C25.0794 27.8018 24.628 28.068 24.1255 28.3281C20.8086 30.0451 15.2602 31.4972 10.0559 26.2929C10.0191 26.2561 9.98244 26.2192 9.94599 26.1823L3.49203 19.729C-1.56638 14.5682 -0.118834 9.08078 1.58707 5.78969C1.84743 5.28741 2.1138 4.83628 2.36398 4.44528C3.04084 3.38745 3.59918 2.76973 3.59918 2.76973L5.60705 0.761857C6.61516 -0.24625 8.24085 -0.255024 9.23814 0.742266L13.2108 4.71491C14.2081 5.7122 14.1993 7.33789 13.1912 8.346L11.1833 10.3539C11.1833 10.3539 9.29881 11.7553 10.7689 13.2254L16.6908 19.1473C16.9493 19.4058 17.2261 19.5372 17.5022 19.5835ZM9.16973 8.12483L10.7739 6.52066L7.43239 3.17916L5.79467 4.81687L5.79254 4.81939C5.75244 4.86684 5.68561 4.94761 5.59852 5.05898C5.53595 5.13897 5.46346 5.23408 5.38332 5.3433L8.6548 8.61478C8.70082 8.56571 8.74477 8.52043 8.78603 8.479C8.93196 8.33245 9.06392 8.2144 9.16685 8.12726L9.16973 8.12483ZM7.24653 11.4491C7.20613 11.7527 7.19465 12.0781 7.22523 12.4221C7.32672 13.564 7.86037 14.5595 8.64755 15.3467L14.5695 21.2686C15.2546 21.9538 16.094 22.3892 17.006 22.5421C17.4883 22.623 17.9434 22.6184 18.3599 22.5625L21.8735 26.0761C20.9122 26.4864 19.823 26.8077 18.6802 26.89C16.7914 27.0261 14.541 26.5353 12.1772 24.1715C12.1449 24.1392 12.1127 24.1069 12.0807 24.0744L12.074 24.0676L5.62447 17.6188C3.34621 15.2893 2.87831 13.0702 3.02403 11.1964C3.11182 10.0676 3.43179 8.9918 3.83857 8.04119L7.24653 11.4491Z" fill="#9A9A9A"/>
</svg>
