<svg width="28" height="28" viewBox="0 0 28 28" fill="none" xmlns="http://www.w3.org/2000/svg">
<path fill-rule="evenodd" clip-rule="evenodd" d="M21.9988 22.9455C19.8759 24.845 17.0728 26 14 26C10.9269 26 8.12355 24.8448 6.0006 22.945C7.50706 19.8623 10.5399 17.7894 13.9995 17.7894C17.4593 17.7894 20.4929 19.863 21.9988 22.9455ZM23.4442 21.404C22.0223 18.9156 19.7233 17.0239 16.9801 16.2171C18.6634 15.2045 19.7894 13.36 19.7894 11.2526C19.7894 8.05517 17.1973 5.46313 13.9999 5.46313C10.8025 5.46313 8.21042 8.05517 8.21042 11.2526C8.21042 13.36 9.33635 15.2044 11.0195 16.217C8.27632 17.0238 5.97702 18.9154 4.55518 21.4032C2.95451 19.364 2 16.7935 2 14C2 7.37258 7.37258 2 14 2C20.6274 2 26 7.37258 26 14C26 16.7938 25.0453 19.3646 23.4442 21.404ZM28 14C28 21.732 21.732 28 14 28C6.26801 28 0 21.732 0 14C0 6.26801 6.26801 0 14 0C21.732 0 28 6.26801 28 14ZM13.9999 15.0421C16.0928 15.0421 17.7894 13.3455 17.7894 11.2526C17.7894 9.15974 16.0928 7.46313 13.9999 7.46313C11.907 7.46313 10.2104 9.15974 10.2104 11.2526C10.2104 13.3455 11.907 15.0421 13.9999 15.0421Z" fill="#2156BD"/>
</svg>
